<svg xmlns="http://www.w3.org/2000/svg" width="61.559" height="56.168" viewBox="0 0 61.559 56.168">
  <g id="add-photo" transform="translate(-0.001)">
    <path id="Path_2076" data-name="Path 2076" d="M26.2,40.3a8.562,8.562,0,0,1,8.526-8.651A8.668,8.668,0,0,1,43.38,40.3a8.562,8.562,0,0,1-8.651,8.526A8.455,8.455,0,0,1,26.2,40.3Zm8.526,13.29A13.353,13.353,0,1,0,21.439,40.3,13.324,13.324,0,0,0,34.729,53.593ZM16.048,29.521V21.5h8.024V13.473H42.753l4.89,5.391h8.526a5.516,5.516,0,0,1,5.391,5.391v32.1a5.407,5.407,0,0,1-5.391,5.266H13.415a5.407,5.407,0,0,1-5.391-5.266V29.521ZM8.024,13.473V5.449h5.391v8.024h8.024v5.391H13.415v8.024H8.024V18.864H0V13.473Z" transform="translate(0.001 -5.449)" fill="#d1d1d1"/>
  </g>
</svg>
